<svg width="228" height="135" viewBox="0 0 228 135" fill="none" xmlns="http://www.w3.org/2000/svg">
<path d="M219.661 129.254C218.462 109.165 211.374 89.8168 199.096 73.8653C186.711 57.6584 169.08 45.7143 149.699 39.7487C131.779 34.2497 109.636 32.5819 92.9454 42.8234C84.9213 47.7782 78.8508 55.22 75.9116 64.2298C73.1201 72.8762 73.0043 82.4398 75.5516 91.1798C80.9621 109.55 97.655 122.553 115.909 126.706C125.222 128.794 135.505 129.329 144.348 125.172C153.958 120.692 158.577 110.671 161.185 101.019C166.081 82.8119 163.884 62.7832 155.392 45.9556C146.791 28.8726 131.576 16.0889 113.588 9.71543C95.8398 3.48161 76.1857 3.7135 58.9264 11.184C42.3099 18.3227 28.5232 31.7335 20.4039 47.8693C18.417 51.7195 16.9093 55.8491 15.6492 59.9945C14.5367 63.7765 20.3676 65.8904 21.488 61.9846C25.9856 46.1139 36.4538 32.1175 50.0945 22.9236C64.2542 13.3899 81.2754 9.6332 98.1396 12.2057C115.012 14.6544 130.984 23.3846 141.819 36.6334C152.654 49.8821 158.12 67.3857 157.396 84.4927C156.973 93.0422 155.156 102 151.313 109.584C149.195 113.55 146.357 117.097 142.369 119.204C138.644 121.078 134.488 121.93 130.255 122.032C113.448 122.446 95.579 114.216 86.293 100.072C77.4624 86.5788 77.3305 67.3039 88.0748 54.8168C99.6254 41.387 119.962 40.2045 136.191 42.9848C154.641 46.0318 172.215 54.989 185.549 68.0251C198.768 80.9294 207.879 97.7966 211.689 115.94C212.533 120.22 213.246 124.616 213.463 128.981C213.607 130.606 214.503 132.155 216.359 132.274C217.853 132.245 219.681 130.871 219.661 129.254Z" fill="black"/>
<path d="M4.89203 51.3499C6.44262 54.3082 8.11699 57.2744 9.80724 59.993C10.7024 61.542 11.7292 62.9751 12.7561 64.4082C13.6591 65.8333 14.6939 67.1427 16.2635 67.8648C19.882 69.5883 23.4545 66.2126 26.3127 64.2827C29.171 62.3528 31.7897 60.2832 34.4162 58.0899C37.4459 55.4252 33.3909 50.8148 30.3613 53.4795C28.2537 55.3332 26.0302 57.0552 23.8147 58.6534C22.7688 59.4564 21.6071 60.1278 20.5612 60.9309C20.0422 61.2705 19.3915 61.726 18.8726 62.0656C18.7408 62.1815 18.4853 62.2894 18.3536 62.4053C18.4774 62.4132 18.6012 62.4211 18.7329 62.3053C18.9805 62.3211 19.0964 62.4529 19.344 62.4687C19.1043 62.3291 18.9884 62.1973 19.1043 62.3291C17.9854 60.3929 16.2634 58.1694 14.9048 56.0935C13.4463 53.6384 11.9878 51.1832 10.661 48.6122C8.52318 45.119 3.00181 47.8727 4.89203 51.3499Z" fill="black"/>
</svg>
