<svg width="241" height="250" viewBox="0 0 241 250" fill="none" xmlns="http://www.w3.org/2000/svg">
<path d="M119.945 9.70273C89.962 17.6506 71.3548 47.5556 68.7326 77.2345C65.7919 109.997 80.4076 141.834 97.2715 169.027C108.765 187.545 121.63 205.008 135.967 221.264C139.84 225.632 146.698 219.697 142.824 215.328C130.802 201.512 119.693 186.991 109.752 171.718C100.965 158.322 92.9902 144.373 86.9417 129.523C76.0946 102.865 72.7033 71.9933 87.6486 46.2183C95.2479 33.3061 106.934 22.4875 121.571 18.7142C123.951 18.1187 125.631 15.9518 125.137 13.4203C124.795 10.9907 122.325 9.10728 119.945 9.70273Z" fill="black"/>
<path d="M102.347 228.081C116.409 228.099 130.52 228.369 144.631 228.64C148.07 228.758 150.413 225.279 149.012 222.136C147.111 217.777 145.92 213.016 145.64 208.21C145.363 202.746 146.503 197.137 145.973 191.722C145.884 189.243 142.806 187.609 140.679 188.155C138.148 188.649 136.922 191.121 137.113 193.449C137.541 199.015 136.299 204.776 136.727 210.342C137.156 215.908 138.698 221.125 140.849 226.093C142.276 223.975 143.804 221.706 145.231 219.589C131.12 219.318 116.907 219.199 102.947 219.03C97.1312 218.85 96.429 228.053 102.347 228.081Z" fill="black"/>
</svg>
