<svg width="241" height="250" viewBox="0 0 241 250" fill="none" xmlns="http://www.w3.org/2000/svg">
<path d="M120.961 9.70273C150.944 17.6506 169.551 47.5556 172.173 77.2345C175.114 109.997 160.498 141.834 143.634 169.027C132.141 187.545 119.276 205.008 104.939 221.264C101.065 225.632 94.2082 219.697 98.0819 215.328C110.104 201.512 121.212 186.991 131.154 171.718C139.941 158.322 147.916 144.373 153.964 129.523C164.811 102.865 168.203 71.9933 153.257 46.2183C145.658 33.3061 133.972 22.4875 119.335 18.7142C116.955 18.1187 115.275 15.9518 115.769 13.4203C116.111 10.9907 118.581 9.10728 120.961 9.70273Z" fill="black"/>
<path d="M138.559 228.081C124.497 228.099 110.386 228.369 96.2751 228.64C92.8361 228.758 90.4925 225.279 91.8935 222.136C93.7945 217.777 94.9854 213.016 95.2656 208.21C95.5426 202.746 94.4026 197.137 94.9328 191.722C95.022 189.243 98.0995 187.609 100.227 188.155C102.758 188.649 103.984 191.121 103.793 193.449C103.365 199.015 104.607 204.776 104.178 210.342C103.75 215.908 102.207 221.125 100.056 226.093C98.6298 223.975 97.1014 221.706 95.6748 219.589C109.786 219.318 123.999 219.199 137.959 219.03C143.775 218.85 144.477 228.053 138.559 228.081Z" fill="black"/>
</svg>
