<svg width="784" height="628" viewBox="0 0 784 628" fill="none" xmlns="http://www.w3.org/2000/svg">
<path d="M406 560.333C592.862 560.333 744.333 408.862 744.333 222C744.333 35.1385 592.862 -116.333 406 -116.333C219.139 -116.333 67.6667 35.1385 67.6667 222C67.6667 408.862 219.139 560.333 406 560.333Z" stroke="black" stroke-width="4"/>
<path d="M67.6667 168.543C118.67 144.471 156.395 141.105 180.839 158.478C217.498 184.53 222.082 290.749 305.481 239.999C388.863 189.232 269.77 168.543 295.619 95.0235C321.467 21.4867 406.135 78.6143 414.543 -1.92591C420.159 -55.6194 355.944 -76.1732 221.862 -63.5702" stroke="black" stroke-width="4"/>
<path d="M609 -48.6666C512.338 35.7306 478.572 86.6836 507.72 104.209C551.433 130.515 569.973 93.4841 623.328 104.209C676.667 114.934 665.113 187.253 637.065 187.253C609 187.253 463.686 168.746 471.011 253.55C478.319 338.353 565.744 350.905 565.744 398.289C565.744 429.872 546.391 478.22 507.72 543.315M103.259 372.998C114.791 367.925 126.385 362.996 138.04 358.213C203.118 331.925 251.416 325.733 282.914 339.622C338.604 364.202 317.187 413.835 334.645 432.122C352.07 450.409 395.647 445.097 395.647 479.878C395.647 503.07 387.865 529.274 372.268 558.473" stroke="black" stroke-width="4" stroke-linecap="round"/>
</svg>
