<svg width="231" height="231" viewBox="0 0 231 231" fill="none" xmlns="http://www.w3.org/2000/svg">
<path d="M80.85 138.6C80.85 135.537 79.6331 132.599 77.4671 130.433C75.301 128.267 72.3632 127.05 69.3 127.05C66.2367 127.05 63.2989 128.267 61.1329 130.433C58.9668 132.599 57.75 135.537 57.75 138.6C57.75 141.663 58.9668 144.601 61.1329 146.767C63.2989 148.933 66.2367 150.15 69.3 150.15C72.3632 150.15 75.301 148.933 77.4671 146.767C79.6331 144.601 80.85 141.663 80.85 138.6ZM173.25 138.6C173.25 135.537 172.033 132.599 169.867 130.433C167.701 128.267 164.763 127.05 161.7 127.05C158.637 127.05 155.699 128.267 153.533 130.433C151.367 132.599 150.15 135.537 150.15 138.6C150.15 141.663 151.367 144.601 153.533 146.767C155.699 148.933 158.637 150.15 161.7 150.15C164.763 150.15 167.701 148.933 169.867 146.767C172.033 144.601 173.25 141.663 173.25 138.6ZM80.85 34.65H70.917C64.2402 34.6487 57.7693 36.9612 52.6058 41.194C47.4422 45.4268 43.905 51.3182 42.5964 57.8655L40.3095 69.3H31.7625C29.465 69.3 27.2617 70.2126 25.6372 71.8372C24.0126 73.4617 23.1 75.6651 23.1 77.9625C23.1 80.2599 24.0126 82.4633 25.6372 84.0878C27.2617 85.7123 29.465 86.625 31.7625 86.625H36.8445L35.5624 93.093C31.9659 94.1447 28.8073 96.3341 26.5604 99.3328C24.3134 102.331 23.0992 105.978 23.1 109.725V167.475C23.1 172.07 24.9253 176.477 28.1744 179.726C31.4234 182.975 35.8301 184.8 40.425 184.8H46.2V196.35C46.2 199.413 47.4168 202.351 49.5829 204.517C51.7489 206.683 54.6867 207.9 57.75 207.9C60.8132 207.9 63.751 206.683 65.9171 204.517C68.0831 202.351 69.3 199.413 69.3 196.35V184.8H161.7V196.35C161.7 199.413 162.917 202.351 165.083 204.517C167.249 206.683 170.187 207.9 173.25 207.9C176.313 207.9 179.251 206.683 181.417 204.517C183.583 202.351 184.8 199.413 184.8 196.35V184.8H190.575C195.17 184.8 199.577 182.975 202.826 179.726C206.075 176.477 207.9 172.07 207.9 167.475V109.725C207.901 105.978 206.687 102.331 204.44 99.3328C202.193 96.3341 199.034 94.1447 195.438 93.093L194.144 86.625H199.237L200.416 86.5441C202.489 86.2595 204.39 85.2334 205.766 83.6558C207.142 82.0782 207.9 80.0558 207.9 77.9625L207.819 76.7844C207.534 74.7105 206.508 72.8099 204.931 71.4341C203.353 70.0582 201.331 69.3001 199.237 69.3H190.679L188.404 57.8655C187.095 51.3182 183.558 45.4268 178.394 41.194C173.231 36.9612 166.76 34.6487 160.083 34.65H150.15V20.2125C150.15 17.9151 149.237 15.7117 147.613 14.0872C145.988 12.4626 143.785 11.55 141.487 11.55H89.5125C87.215 11.55 85.0117 12.4626 83.3872 14.0872C81.7626 15.7117 80.85 17.9151 80.85 20.2125V34.65ZM92.4 34.65V23.1H138.6V34.65H92.4ZM40.425 103.95H190.575C192.107 103.95 193.576 104.558 194.659 105.641C195.742 106.724 196.35 108.193 196.35 109.725V167.475C196.35 169.007 195.742 170.476 194.659 171.559C193.576 172.642 192.107 173.25 190.575 173.25H40.425C38.8934 173.25 37.4245 172.642 36.3414 171.559C35.2584 170.476 34.65 169.007 34.65 167.475V109.725C34.65 108.193 35.2584 106.724 36.3414 105.641C37.4245 104.558 38.8934 103.95 40.425 103.95ZM70.917 46.2H160.083C164.089 46.1997 167.971 47.5875 171.068 50.1271C174.166 52.6668 176.288 56.2013 177.073 60.1293L183.541 92.4H47.4705L53.9269 60.1293C54.7116 56.2033 56.8319 52.6702 59.9272 50.1308C63.0225 47.5914 66.9133 46.2024 70.917 46.2Z" fill="black"/>
</svg>
