<svg width="83" height="87" viewBox="0 0 83 87" fill="none" xmlns="http://www.w3.org/2000/svg">
<path d="M43.9653 80.6007C44.3283 58.3581 44.5604 36.2081 44.9233 13.9656C45.0572 9.15964 37.2425 10.3283 37.2395 15.0416C36.8765 37.2842 36.6444 59.4341 36.2815 81.6767C36.1476 86.4826 43.8315 85.4066 43.9653 80.6007Z" fill="black"/>
<path d="M75.1179 44.4182C65.5397 30.6074 55.9129 17.0055 46.3347 3.19469C45.0183 1.3346 41.8549 1.30511 40.1726 3.36821C31.6788 13.5675 24.105 24.5115 17.3351 35.759C14.6922 40.0724 21.7148 42.7797 24.1445 38.4427C30.4733 27.6819 37.7706 17.4571 45.9541 7.65191C43.8564 7.74061 41.8896 7.73667 39.7919 7.82538C49.3701 21.6362 58.9969 35.2381 68.5751 49.0489C71.208 52.7691 77.7509 48.1384 75.1179 44.4182Z" fill="black"/>
</svg>
