<svg width="81" height="86" viewBox="0 0 81 86" fill="none" xmlns="http://www.w3.org/2000/svg">
<path d="M8.4819 62.3106C28.4174 52.4395 48.2106 42.4945 68.1462 32.6234C72.479 30.5399 67.8589 24.1297 63.6683 26.2872C43.7328 36.1583 23.9396 46.1032 4.00408 55.9743C-0.328797 58.0579 4.14903 64.3942 8.4819 62.3106Z" fill="black"/>
<path d="M54.9179 73.4167C62.8033 58.5742 70.4808 43.7842 78.3662 28.9417C79.4161 26.9191 77.9925 24.094 75.3879 23.5443C62.4301 20.6693 49.232 18.9533 36.1326 18.0909C31.0876 17.7187 31.8998 25.2011 36.8681 25.373C49.3327 26.0664 61.7649 27.8662 74.2301 30.646C73.1899 28.8223 72.2921 27.0724 71.2519 25.2486C63.3665 40.0912 55.689 54.8811 47.8036 69.7237C45.7038 73.7688 52.8181 77.4618 54.9179 73.4167Z" fill="black"/>
</svg>
