<svg width="66" height="49" viewBox="0 0 66 49" fill="none" xmlns="http://www.w3.org/2000/svg">
<path d="M62.9372 41.6931C46.062 29.9586 29.1826 18.3608 12.3074 6.62635C8.69306 4.05325 5.09206 9.96143 8.71057 12.3979C25.5858 24.1323 42.4652 35.7301 59.3404 47.4646C62.9547 50.0377 66.5516 44.2662 62.9372 41.6931Z" fill="black"/>
<path d="M53.0793 1.85884C36.9577 1.22734 20.9685 0.73667 4.8469 0.105168C2.66035 0.0380709 0.81669 2.17012 1.43289 4.37764C4.37723 15.411 8.42326 26.2047 13.1651 36.6093C14.9568 40.6311 21.0788 37.2625 19.1463 33.3731C14.5243 23.5193 10.8715 13.2849 8.05128 2.66569C6.91187 4.13539 5.77663 5.46843 4.63722 6.93814C20.7588 7.56964 36.748 8.06031 52.8696 8.69181C57.2427 8.826 57.4524 1.99303 53.0793 1.85884Z" fill="black"/>
</svg>
