<svg width="25" height="25" viewBox="0 0 25 25" fill="none" xmlns="http://www.w3.org/2000/svg">
<path d="M12.4854 2.62292C6.96542 2.62292 2.49542 7.10292 2.49542 12.6229C2.49542 18.1429 6.96542 22.6229 12.4854 22.6229C18.0154 22.6229 22.4954 18.1429 22.4954 12.6229C22.4954 7.10292 18.0154 2.62292 12.4854 2.62292ZM12.4954 20.6229C8.07542 20.6229 4.49542 17.0429 4.49542 12.6229C4.49542 8.20292 8.07542 4.62292 12.4954 4.62292C16.9154 4.62292 20.4954 8.20292 20.4954 12.6229C20.4954 17.0429 16.9154 20.6229 12.4954 20.6229Z" fill="black"/>
<path d="M12.9954 7.62292H11.4954V13.6229L16.7454 16.7729L17.4954 15.5429L12.9954 12.8729V7.62292Z" fill="black"/>
</svg>
